<?xml version="1.0" standalone="no"?>
<!DOCTYPE svg PUBLIC "-//W3C//DTD SVG 20010904//EN"
 "http://www.w3.org/TR/2001/REC-SVG-20010904/DTD/svg10.dtd">
<svg version="1.0" xmlns="http://www.w3.org/2000/svg"
 width="944.000000pt" height="944.000000pt" viewBox="0 0 944.000000 944.000000"
 preserveAspectRatio="xMidYMid meet">
<metadata>
Created by potrace 1.14, written by Peter Selinger 2001-2017
</metadata>
<g transform="translate(0.000000,944.000000) scale(0.100000,-0.100000)"
fill="#000000" stroke="none">
<path d="M4596 8623 c-3 -3 -39 -8 -78 -9 -81 -3 -207 -13 -253 -19 -16 -2
-59 -7 -95 -11 -35 -3 -68 -8 -73 -11 -4 -2 -25 -6 -45 -8 -20 -2 -48 -7 -62
-10 -14 -3 -38 -8 -55 -10 -16 -3 -45 -9 -64 -15 -19 -5 -37 -8 -39 -5 -3 3
-10 1 -16 -4 -6 -5 -24 -12 -41 -15 -62 -11 -85 -17 -181 -47 -54 -17 -110
-34 -124 -36 -14 -3 -30 -10 -36 -15 -7 -5 -21 -11 -33 -13 -21 -4 -185 -68
-274 -108 -28 -12 -117 -55 -197 -96 -80 -41 -155 -79 -167 -85 -13 -6 -23
-14 -23 -18 0 -5 -4 -8 -9 -8 -10 0 -192 -108 -201 -119 -3 -3 -32 -24 -65
-45 -236 -153 -589 -476 -781 -715 -10 -13 -24 -28 -29 -35 -35 -39 -115 -147
-115 -155 0 -5 -4 -11 -8 -13 -12 -5 -102 -134 -102 -147 0 -6 -4 -11 -8 -11
-5 0 -21 -21 -36 -47 -15 -27 -40 -69 -56 -95 -16 -27 -44 -76 -62 -110 -18
-35 -36 -64 -40 -66 -5 -2 -8 -8 -8 -12 0 -5 -26 -62 -58 -127 -31 -65 -59
-122 -61 -128 -8 -24 -23 -62 -36 -90 -7 -16 -23 -57 -35 -90 -13 -33 -26 -69
-31 -80 -23 -59 -79 -248 -75 -253 3 -3 2 -10 -4 -17 -7 -9 -36 -121 -56 -220
-2 -11 -6 -31 -9 -45 -3 -14 -7 -38 -9 -55 -2 -16 -7 -41 -10 -55 -10 -45 -21
-133 -31 -260 -2 -19 -4 -35 -5 -35 -10 0 -14 -449 -6 -585 8 -119 14 -193 17
-200 1 -3 1 -8 0 -12 0 -4 4 -31 9 -60 5 -29 12 -75 15 -102 3 -27 8 -52 10
-55 1 -3 6 -24 9 -45 4 -21 9 -51 13 -65 3 -14 7 -35 8 -46 1 -11 5 -27 8 -35
3 -8 8 -28 11 -45 7 -36 14 -60 16 -60 1 0 3 -9 5 -20 2 -11 15 -58 29 -105
15 -47 28 -89 29 -95 7 -26 40 -121 46 -130 3 -5 6 -12 6 -15 0 -7 43 -116 63
-160 8 -19 15 -36 14 -37 -3 -5 161 -328 179 -355 11 -14 19 -33 19 -42 0 -9
5 -16 10 -16 6 0 15 -11 20 -25 5 -14 18 -38 28 -53 10 -15 53 -79 95 -142 88
-133 211 -293 312 -406 83 -93 296 -305 355 -353 24 -19 48 -40 54 -45 10 -10
97 -81 121 -98 6 -4 24 -18 40 -31 48 -37 174 -127 179 -127 4 0 136 -86 153
-100 7 -6 19 -10 28 -10 8 0 15 -4 15 -9 0 -4 26 -22 58 -38 31 -17 104 -54
162 -84 104 -54 345 -160 450 -197 30 -11 64 -24 75 -28 11 -4 25 -8 30 -9 6
0 24 -6 40 -12 60 -23 165 -53 185 -53 11 0 20 -3 20 -7 0 -5 10 -9 23 -10 12
-1 33 -4 47 -7 219 -49 286 -61 395 -72 76 -8 110 -12 110 -14 0 -3 103 -9
259 -15 83 -3 152 -8 154 -10 3 -3 11 0 18 6 8 7 14 7 19 -1 3 -6 11 -7 17 -4
5 3 62 8 126 9 65 2 142 6 172 10 30 3 80 8 110 11 122 13 151 17 295 45 118
23 260 55 260 59 0 1 7 3 15 5 8 1 35 8 60 15 25 7 50 13 57 14 7 1 16 5 19 9
4 4 13 7 20 7 7 0 25 5 41 12 15 7 33 12 38 13 13 1 152 53 189 71 16 8 33 14
37 14 4 0 37 13 72 30 36 16 70 30 76 30 6 0 11 5 11 10 0 6 4 10 9 10 5 0 25
7 45 15 20 8 39 15 42 14 4 0 10 3 13 8 3 4 24 17 46 28 22 11 82 43 134 72
51 29 97 53 102 53 5 0 9 5 9 10 0 6 7 10 15 10 8 0 15 5 15 10 0 6 5 10 12
10 6 0 25 10 42 23 17 12 43 29 59 36 15 8 27 18 27 23 0 4 5 8 10 8 12 0 251
176 306 225 6 6 42 37 80 70 119 104 322 313 404 415 19 24 40 48 45 54 23 24
115 146 115 151 0 4 6 12 13 20 7 7 36 46 63 86 27 41 52 76 57 77 4 2 7 10 7
18 0 8 5 14 10 14 6 0 10 9 10 20 0 11 5 20 10 20 6 0 10 7 10 15 0 8 5 15 10
15 6 0 10 7 10 15 0 8 3 15 8 15 4 0 18 24 32 53 14 28 28 54 31 57 6 5 106
201 132 260 8 19 26 60 40 90 14 30 36 84 50 120 13 36 28 74 32 85 5 11 9 27
11 35 2 8 7 23 13 35 11 24 40 112 46 143 2 12 7 27 11 34 4 6 9 21 10 32 2
12 13 55 24 96 12 41 22 84 24 95 3 19 18 104 21 115 9 41 16 73 21 110 4 25
8 56 10 70 6 39 14 110 18 162 3 26 8 53 12 59 5 8 3 9 -6 4 -9 -6 -11 -4 -5
5 5 7 10 36 11 64 6 82 4 445 -1 521 -3 39 -7 95 -9 125 -3 30 -5 55 -6 55 -1
0 -4 14 -5 30 -5 48 -16 128 -21 155 -2 14 -7 41 -10 60 -3 19 -12 64 -20 100
-14 64 -24 113 -28 137 -1 7 -5 16 -9 19 -4 4 -7 19 -7 34 0 15 -3 30 -7 34
-4 3 -8 16 -10 28 -4 27 -80 262 -98 303 -7 17 -21 50 -30 75 -27 73 -29 77
-123 270 -50 102 -113 223 -141 269 -28 46 -51 88 -51 93 0 4 -4 8 -10 8 -5 0
-10 6 -10 14 0 8 -6 21 -13 28 -7 7 -29 38 -49 68 -58 87 -112 163 -130 185
-9 11 -38 47 -64 80 -103 130 -361 402 -451 475 -10 8 -56 47 -103 86 -47 39
-130 104 -185 143 -55 39 -104 74 -110 79 -55 42 -378 232 -396 232 -5 0 -9 5
-9 10 0 6 -5 10 -12 10 -6 0 -50 19 -97 42 -47 23 -89 41 -93 40 -5 -1 -8 2
-8 8 0 6 -3 9 -7 8 -5 -1 -26 6 -48 16 -95 42 -234 94 -239 88 -3 -3 -6 0 -6
6 0 7 -8 12 -17 12 -10 0 -41 9 -70 20 -28 10 -62 21 -75 24 -13 2 -36 9 -53
16 -16 6 -31 11 -32 11 -2 -1 -4 -1 -5 0 -2 0 -10 2 -18 4 -8 2 -26 7 -40 10
-40 11 -103 25 -135 31 -16 3 -32 9 -35 12 -3 4 -16 7 -30 8 -14 0 -82 10
-152 22 -70 12 -131 22 -135 21 -4 -1 -10 0 -13 1 -11 5 -220 21 -335 25 -55
2 -102 5 -105 6 -3 1 -9 1 -14 0 -25 -5 -144 -3 -153 2 -6 4 -13 4 -17 0z"/>
</g>
</svg>
