<?xml version="1.0" standalone="no"?>
<!DOCTYPE svg PUBLIC "-//W3C//DTD SVG 20010904//EN"
 "http://www.w3.org/TR/2001/REC-SVG-20010904/DTD/svg10.dtd">
<svg version="1.0" xmlns="http://www.w3.org/2000/svg"
 width="500.000000pt" height="500.000000pt" viewBox="0 0 500.000000 500.000000"
 preserveAspectRatio="xMidYMid meet">
<metadata>
Created by potrace 1.14, written by Peter Selinger 2001-2017
</metadata>
<g transform="translate(0.000000,500.000000) scale(0.100000,-0.100000)"
fill="#000000" stroke="none">
<path d="M2074 4358 c-131 -77 -376 -222 -544 -320 -168 -99 -312 -187 -320
-197 -13 -15 -15 -91 -14 -565 l1 -547 -36 -19 c-50 -25 -106 -84 -133 -139
-35 -71 -33 -187 5 -264 64 -129 213 -196 353 -158 137 37 239 190 220 328
-14 104 -87 204 -175 242 l-46 19 0 496 c0 272 3 497 5 499 5 4 819 486 955
565 33 19 61 36 63 37 2 2 -84 153 -92 162 -1 2 -110 -61 -242 -139z m-704
-1820 c24 -15 50 -67 50 -101 0 -13 -10 -39 -23 -58 -80 -120 -259 -8 -193
120 28 54 111 73 166 39z"/>
<path d="M2964 4270 c-27 -15 -116 -67 -199 -115 -82 -48 -168 -97 -190 -110
-144 -81 -571 -329 -578 -335 -5 -4 11 -42 35 -84 41 -72 61 -88 83 -67 6 5
210 124 454 265 l444 256 186 -107 c102 -58 209 -119 236 -134 28 -15 176 -99
330 -187 243 -138 281 -157 291 -143 6 9 27 46 47 82 l37 67 -173 97 c-433
246 -828 470 -888 505 l-66 37 -49 -27z"/>
<path d="M2933 3810 c-111 -54 -166 -140 -170 -265 -2 -73 1 -86 30 -144 37
-75 100 -130 178 -156 95 -32 227 -5 291 60 l23 23 84 -49 c45 -27 84 -49 85
-49 8 0 644 -371 658 -384 16 -14 17 -51 19 -398 0 -211 2 -475 3 -588 l2
-205 92 -3 c83 -2 92 -1 93 15 1 33 -3 836 -5 1060 -1 122 -4 224 -6 226 -4 3
-912 528 -936 541 -1 1 -4 26 -7 56 -8 72 -24 116 -60 167 -83 117 -242 157
-374 93z m180 -172 c55 -29 76 -79 58 -139 -24 -78 -130 -104 -188 -46 -37 36
-43 105 -13 147 34 48 95 64 143 38z"/>
<path d="M683 3327 c-6 -11 -1 -1251 6 -1289 0 -3 90 -58 199 -121 108 -63
264 -153 346 -201 82 -47 153 -86 158 -86 4 0 8 -4 8 -10 0 -5 4 -10 8 -10 5
0 75 -38 156 -85 81 -47 149 -85 152 -85 2 0 4 4 4 9 0 5 19 41 41 81 23 40
38 75 33 80 -7 6 -521 304 -764 442 -19 11 -63 36 -97 56 l-62 36 -1 350 c-1
323 -6 805 -9 832 -1 14 -170 14 -178 1z"/>
<path d="M2390 3179 c-20 -4 23 -7 99 -8 74 0 132 2 129 5 -9 8 -188 11 -228
3z"/>
<path d="M2245 3140 c-12 -5 88 -9 245 -9 175 -1 260 3 250 9 -19 12 -467 12
-495 0z"/>
<path d="M2160 3100 c-10 -6 103 -10 328 -10 226 0 341 3 337 10 -8 13 -644
13 -665 0z"/>
<path d="M2093 3055 c-9 -7 117 -10 396 -10 271 0 407 3 400 10 -14 14 -777
14 -796 0z"/>
<path d="M2044 3018 c-7 -10 -51 -9 436 -9 508 0 475 -1 466 9 -10 9 -896 10
-902 0z"/>
<path d="M2004 2978 c-6 -10 -19 -9 301 -9 395 0 425 0 425 9 0 10 -720 10
-726 0z"/>
<path d="M2790 2978 c0 -8 7 -10 40 -10 106 0 162 3 156 10 -10 10 -196 10
-196 0z"/>
<path d="M1967 2938 c-15 -10 -28 -9 333 -9 356 0 335 -1 327 8 -9 9 -646 10
-660 1z"/>
<path d="M2820 2939 c-46 -8 -35 -10 93 -12 59 -1 107 1 107 6 0 4 -8 7 -17 8
-81 4 -154 3 -183 -2z"/>
<path d="M1963 2902 c-18 -2 -33 -6 -33 -10 0 -4 125 -6 278 -6 323 2 337 2
329 10 -6 7 -514 12 -574 6z"/>
<path d="M2794 2901 c-14 -14 9 -17 126 -17 72 1 130 4 130 8 0 5 -12 8 -27 9
-171 3 -225 3 -229 0z"/>
<path d="M1920 2862 c-6 -2 -10 -7 -10 -10 0 -10 507 -9 516 1 4 4 -1 7 -12 8
-65 3 -486 3 -494 1z"/>
<path d="M2807 2862 c-9 -2 -17 -7 -17 -11 0 -3 65 -7 145 -6 80 0 145 3 145
7 0 5 -15 8 -32 9 -115 3 -227 4 -241 1z"/>
<path d="M1883 2818 c-6 -10 -9 -10 225 -12 112 -1 209 2 215 6 15 9 21 9
-231 11 -112 1 -206 -1 -209 -5z"/>
<path d="M2807 2822 c-9 -2 -17 -7 -17 -10 0 -4 70 -7 155 -7 85 0 155 3 155
7 0 5 -10 8 -22 9 -68 3 -256 4 -271 1z"/>
<path d="M1865 2770 c-4 -6 66 -9 195 -8 110 0 200 5 200 9 0 13 -387 11 -395
-1z"/>
<path d="M2790 2771 c0 -12 318 -12 325 0 4 5 -59 9 -159 9 -93 0 -166 -4
-166 -9z"/>
<path d="M1850 2731 c0 -5 92 -9 205 -9 120 0 205 3 205 9 0 5 -86 9 -205 9
-113 0 -205 -4 -205 -9z"/>
<path d="M2602 2732 c-8 -5 7 -9 38 -9 27 -1 50 3 50 8 0 11 -70 12 -88 1z"/>
<path d="M2790 2732 c0 -5 79 -9 175 -10 108 -1 173 3 170 9 -8 11 -345 12
-345 1z"/>
<path d="M1840 2691 c0 -4 95 -8 210 -9 116 0 210 4 210 9 0 5 -94 9 -210 9
-115 0 -210 -4 -210 -9z"/>
<path d="M2512 2691 c-7 -4 28 -8 83 -9 58 -1 95 2 95 8 0 12 -159 13 -178 1z"/>
<path d="M2790 2691 c0 -5 81 -9 180 -9 99 1 180 5 180 9 0 5 -81 9 -180 9
-99 0 -180 -4 -180 -9z"/>
<path d="M1830 2649 c0 -5 95 -9 215 -9 124 0 215 4 215 9 0 5 -91 9 -215 9
-120 0 -215 -4 -215 -9z"/>
<path d="M2415 2650 c-12 -5 41 -9 128 -9 86 -1 147 3 147 8 0 12 -247 12
-275 1z"/>
<path d="M2790 2649 c0 -5 84 -9 186 -9 113 0 183 4 179 9 -7 12 -365 12 -365
0z"/>
<path d="M1820 2609 c0 -5 98 -9 220 -9 123 0 220 4 220 9 0 5 -97 9 -220 9
-122 0 -220 -4 -220 -9z"/>
<path d="M2360 2608 c0 -4 74 -8 165 -8 92 0 165 4 165 9 0 5 -72 9 -165 8
-91 0 -165 -4 -165 -9z"/>
<path d="M2790 2609 c0 -5 81 -9 191 -9 104 0 188 4 185 8 -7 12 -376 13 -376
1z"/>
<path d="M1814 2569 c-3 -5 92 -9 220 -9 133 0 226 4 226 9 0 12 -438 12 -446
0z"/>
<path d="M2360 2569 c0 -5 71 -9 165 -9 91 0 165 4 165 9 0 5 -74 9 -165 9
-94 0 -165 -4 -165 -9z"/>
<path d="M2790 2569 c0 -5 85 -9 190 -9 106 0 190 4 190 9 0 5 -84 9 -190 9
-105 0 -190 -4 -190 -9z"/>
<path d="M1817 2528 c-7 -4 90 -8 216 -8 125 0 227 3 227 8 0 9 -428 10 -443
0z"/>
<path d="M2364 2528 c-3 -5 69 -8 160 -8 91 0 166 3 166 8 0 10 -320 10 -326
0z"/>
<path d="M2790 2528 c0 -5 86 -8 190 -8 105 0 190 3 190 8 0 4 -85 7 -190 7
-104 0 -190 -3 -190 -7z"/>
<path d="M1814 2488 c-6 -9 -11 -9 244 -11 130 -1 201 2 199 8 -4 12 -436 14
-443 3z"/>
<path d="M2364 2488 c-7 -10 -19 -10 151 -10 179 0 175 0 175 10 0 10 -320 10
-326 0z"/>
<path d="M2790 2488 c0 -10 -1 -10 200 -10 191 0 180 0 180 10 0 4 -85 7 -190
7 -104 0 -190 -3 -190 -7z"/>
<path d="M1823 2446 c2 -6 83 -9 203 -8 247 1 239 1 230 9 -11 12 -437 10
-433 -1z"/>
<path d="M2364 2448 c-6 -10 -18 -9 156 -11 144 -3 170 -1 170 12 0 9 -321 8
-326 -1z"/>
<path d="M2790 2448 c0 -10 -6 -10 195 -10 199 1 185 0 185 10 0 4 -85 7 -190
7 -104 0 -190 -3 -190 -7z"/>
<path d="M1820 2408 c0 -10 -3 -9 235 -11 113 0 190 3 190 9 0 5 -86 9 -212 9
-117 0 -213 -3 -213 -7z"/>
<path d="M2363 2406 c3 -9 50 -11 150 -7 15 1 27 4 27 9 0 4 -41 7 -90 7 -56
1 -89 -3 -87 -9z"/>
<path d="M2790 2408 c0 -10 0 -10 185 -10 191 0 200 0 191 10 -10 9 -376 10
-376 0z"/>
<path d="M1830 2365 c0 -11 415 -13 427 -2 3 4 -14 7 -38 8 -347 4 -389 3
-389 -6z"/>
<path d="M2378 2368 c-13 -3 -18 -7 -13 -8 21 -4 127 -2 131 3 8 8 -93 13
-118 5z"/>
<path d="M2793 2368 c-5 -9 -2 -9 195 -11 85 -1 159 1 165 5 7 4 -15 8 -48 8
-33 1 -116 2 -183 3 -68 1 -126 -1 -129 -5z"/>
<path d="M1840 2325 c0 -12 404 -14 416 -2 8 8 -4 8 -253 10 -107 1 -163 -2
-163 -8z"/>
<path d="M2413 2332 c-29 -2 -53 -7 -53 -11 0 -12 107 -8 120 5 8 8 7 10 -2
10 -7 -1 -37 -2 -65 -4z"/>
<path d="M2794 2331 c-2 -2 -4 -7 -4 -11 0 -10 346 -7 356 3 4 4 -1 7 -12 7
-169 4 -337 4 -340 1z"/>
<path d="M3650 2332 l-36 -3 1 -532 c0 -461 -2 -534 -15 -547 -8 -8 -239 -147
-513 -309 l-497 -293 19 -32 c10 -17 31 -53 46 -79 16 -28 33 -46 40 -43 15 5
107 59 670 391 231 136 424 252 429 256 13 12 14 1181 1 1185 -16 6 -107 9
-145 6z"/>
<path d="M1858 2288 c-7 -4 -11 -8 -8 -9 21 -7 238 -5 250 2 9 5 -24 9 -85 10
-55 0 -110 2 -122 3 -12 1 -28 -1 -35 -6z"/>
<path d="M2423 2293 c-83 -5 -81 -19 2 -20 49 -1 65 3 65 13 0 8 -1 13 -2 12
-2 -1 -31 -3 -65 -5z"/>
<path d="M2885 2289 c-60 -3 -108 -7 -105 -8 11 -8 351 -8 355 0 7 11 -119 15
-250 8z"/>
<path d="M2833 2252 c-40 -2 -73 -6 -73 -10 0 -9 346 -9 355 0 8 8 -176 14
-282 10z"/>
<path d="M1864 2242 c6 -10 192 -9 202 1 4 4 -41 7 -100 7 -59 0 -105 -4 -102
-8z"/>
<path d="M2360 2242 c0 -4 34 -7 75 -7 41 0 75 3 75 7 0 5 -34 8 -75 8 -41 0
-75 -3 -75 -8z"/>
<path d="M1885 2200 c8 -12 163 -11 171 1 3 5 -34 9 -86 9 -58 0 -89 -4 -85
-10z"/>
<path d="M2360 2200 c0 -6 46 -9 116 -9 70 1 111 5 103 10 -19 12 -219 11
-219 -1z"/>
<path d="M2695 2200 c-12 -5 68 -8 193 -9 127 0 212 4 212 10 0 11 -377 11
-405 -1z"/>
<path d="M1905 2160 c3 -5 40 -10 81 -10 43 0 74 4 74 10 0 6 -34 10 -81 10
-51 0 -78 -4 -74 -10z"/>
<path d="M2355 2160 c-4 -7 116 -10 354 -10 229 0 362 4 366 10 4 7 -116 10
-354 10 -229 0 -362 -4 -366 -10z"/>
<path d="M1930 2121 c0 -5 36 -9 80 -8 44 0 80 4 80 8 0 5 -36 9 -80 9 -44 0
-80 -4 -80 -9z"/>
<path d="M2325 2121 c-3 -6 139 -9 360 -9 201 0 368 5 371 9 3 5 -157 9 -360
9 -212 0 -367 -4 -371 -9z"/>
<path d="M1970 2080 c0 -5 45 -9 108 -9 66 1 99 4 86 9 -29 12 -194 12 -194 0z"/>
<path d="M2250 2080 c-14 -4 154 -7 373 -7 218 0 397 3 397 8 0 10 -735 9
-770 -1z"/>
<path d="M1995 2039 c8 -13 982 -12 990 1 4 6 -172 9 -495 9 -301 0 -498 -4
-495 -10z"/>
<path d="M2035 2000 c8 -13 902 -13 910 -1 3 6 -176 10 -455 10 -292 0 -459
-3 -455 -9z"/>
<path d="M2090 1958 c0 -5 180 -8 399 -8 220 0 402 3 404 8 3 4 -177 7 -399 7
-222 0 -404 -3 -404 -7z"/>
<path d="M2150 1918 c0 -10 -37 -9 349 -9 178 0 328 4 332 8 4 4 -147 8 -337
8 -189 0 -344 -3 -344 -7z"/>
<path d="M2236 1877 c21 -12 504 -11 516 1 4 4 -114 8 -262 8 -170 0 -264 -3
-254 -9z"/>
<path d="M2355 1840 c3 -5 8 -10 11 -10 2 0 4 5 4 10 0 6 -5 10 -11 10 -5 0
-7 -4 -4 -10z"/>
<path d="M2380 1838 c0 -11 218 -10 224 0 3 4 -47 8 -110 8 -63 -1 -114 -4
-114 -8z"/>
<path d="M2628 1843 c7 -3 16 -2 19 1 4 3 -2 6 -13 5 -11 0 -14 -3 -6 -6z"/>
<path d="M3014 1709 c-145 -26 -242 -137 -252 -287 -4 -61 -8 -74 -26 -84 -11
-6 -61 -34 -111 -63 -265 -155 -596 -346 -618 -356 -22 -10 -66 12 -503 261
-264 150 -494 281 -512 291 -18 11 -34 19 -36 19 -2 0 -24 -36 -49 -80 l-46
-80 22 -14 c23 -15 265 -153 357 -204 30 -17 206 -116 390 -221 184 -105 341
-193 350 -196 8 -2 208 107 445 244 l429 248 42 -30 c116 -81 275 -65 379 38
148 146 109 391 -75 482 -71 35 -123 44 -186 32z m126 -214 c45 -41 49 -124 7
-163 -59 -55 -123 -51 -168 10 -35 49 -38 94 -7 133 42 54 121 63 168 20z"/>
</g>
</svg>
